HIERARCHY
ROOT hip
{
	OFFSET 0.000000 0.000000 0.000000 
	CHANNELS 6 Xposition Yposition Zposition Xrotation Zrotation Yrotation
	JOINT abdomen
	{
		OFFSET 0.000000 3.402643 0.000000 
		CHANNELS 3 Xrotation Zrotation Yrotation
		JOINT chest
		{
			OFFSET 0.000000 8.438565 -0.680529 
			CHANNELS 3 Xrotation Zrotation Yrotation
			JOINT neck
			{
				OFFSET 0.000000 10.207942 -0.272212 
				CHANNELS 3 Xrotation Zrotation Yrotation
				JOINT head
				{
					OFFSET 0.000000 3.130431 0.000000 
					CHANNELS 3 Xrotation Zrotation Yrotation
					End Site
					{
						OFFSET 0.000000 3.130435 0.000000 
					}
				}
			}
			JOINT lCollar
			{
				OFFSET 3.470700 6.669187 -0.816635 
				CHANNELS 3 Yrotation Zrotation Xrotation
				JOINT lShldr
				{
					OFFSET 3.198488 0.000000 0.000000 
					CHANNELS 3 Zrotation Yrotation Xrotation
					JOINT lForeArm
					{
						OFFSET 10.139888 0.000000 0.000000 
						CHANNELS 3 Yrotation Zrotation Xrotation
						JOINT lHand
						{
							OFFSET 8.370511 0.000000 0.000000 
							CHANNELS 3 Zrotation Yrotation Xrotation
							End Site
							{
								OFFSET 4.083176 0.000000 0.000000 
							}
						}
					}
				}
			}
			JOINT rCollar
			{
				OFFSET -3.470700 6.669187 -0.816635 
				CHANNELS 3 Yrotation Zrotation Xrotation
				JOINT rShldr
				{
					OFFSET -3.198488 0.000000 0.000000 
					CHANNELS 3 Zrotation Yrotation Xrotation
					JOINT rForeArm
					{
						OFFSET -10.139888 0.000000 0.000000 
						CHANNELS 3 Yrotation Zrotation Xrotation
						JOINT rHand
						{
							OFFSET -8.370511 0.000000 0.000000 
							CHANNELS 3 Zrotation Yrotation Xrotation
							End Site
							{
								OFFSET -4.083176 0.000000 0.000000 
							}
						}
					}
				}
			}
		}
	}
	JOINT lThigh
	{
		OFFSET 5.308129 -1.633274 1.361059 
		CHANNELS 3 Xrotation Zrotation Yrotation
		JOINT lShin
		{
			OFFSET -2.041588 -20.007561 0.000000 
			CHANNELS 3 Xrotation Zrotation Yrotation
			JOINT lFoot
			{
				OFFSET 0.000000 -19.190928 -1.224953 
				CHANNELS 3 Xrotation Yrotation Zrotation
				End Site
				{
					OFFSET 0.000000 -2.449906 4.627600 
				}
			}
		}
	}
	JOINT rThigh
	{
		OFFSET -5.308129 -1.633274 1.361059 
		CHANNELS 3 Xrotation Zrotation Yrotation
		JOINT rShin
		{
			OFFSET 2.041588 -20.007561 0.000000 
			CHANNELS 3 Xrotation Zrotation Yrotation
			JOINT rFoot
			{
				OFFSET 0.000000 -19.190928 -1.224953 
				CHANNELS 3 Xrotation Yrotation Zrotation
				End Site
				{
					OFFSET 0.000000 -2.449906 4.627600 
				}
			}
		}
	}
}
MOTION
Frames: 11
Frame Time: 0.033333
-57.336601 41.106979 57.047237 0.195651 3.369121 -54.528961 0.000000 0.000000 0.000000 -1.951430 5.211836 -2.998865 -10.153148 -0.570223 1.778086 10.137758 2.108620 1.375145 -3.519355 9.157742 6.311733 -39.606792 11.806430 -39.306511 -23.061544 15.973548 32.782726 19.756437 15.271088 -8.180517 3.090466 -14.082293 8.028685 39.382427 -3.735742 -32.548149 24.625193 -22.791536 61.364296 -12.946791 -21.251335 -8.363544 -23.879669 13.166986 14.964205 90.312561 3.658579 -22.448174 -5.507058 0.460419 -3.650751 -36.360981 5.936667 -7.901544 67.551834 -9.059010 -9.864537 -31.075130 3.896602 -12.115170 
-57.756096 41.090038 57.386478 -0.352106 3.183534 -54.550774 0.000000 0.000000 0.000000 -2.038147 4.713826 -2.745121 -10.309758 -0.581502 1.703066 10.568008 2.313095 1.261288 -3.519355 9.157742 6.311733 -38.941998 12.187766 -39.574436 -23.050892 15.838085 33.615303 18.787022 14.964692 -8.241445 3.090466 -14.082293 8.028685 38.994278 -3.522096 -32.629551 24.479645 -22.657103 59.898949 -14.186396 -19.529280 -8.359492 -30.452265 13.139502 13.224613 90.657967 3.796866 -20.847082 -9.350141 -0.003550 0.752823 -35.249393 6.180979 -7.464599 67.760780 -9.449595 -11.942295 -31.913498 4.041756 -12.271229 
-58.208000 41.091362 57.712479 -0.889736 2.802397 -54.428215 0.000000 0.000000 0.000000 -1.947972 3.943040 -2.575092 -10.173682 -0.295934 1.372149 10.577558 2.147164 1.148522 -3.519355 9.157742 6.311733 -37.973930 12.547362 -39.402512 -23.021496 15.659187 33.326874 18.846004 15.198424 -8.214157 3.090466 -14.082293 8.028685 39.279858 -3.321420 -32.764610 24.506548 -22.665867 60.328487 -13.662362 -19.747240 -8.389228 -36.480980 12.712774 11.077896 88.171951 3.603578 -19.247931 -11.846880 -0.414743 3.477080 -33.827133 6.571987 -6.900779 67.941444 -9.860075 -12.935454 -32.373615 4.100524 -12.264627 
-58.671448 41.072536 58.078224 -1.573453 2.225724 -54.152878 0.000000 0.000000 0.000000 -1.594363 3.250697 -2.492630 -10.164965 -0.673514 1.290938 10.695380 2.517855 0.824700 -3.519355 9.157742 6.311733 -37.284779 12.857794 -39.323471 -22.970482 15.417003 33.358555 18.571516 15.006925 -8.247126 3.090466 -14.082293 8.028685 39.785881 -3.341940 -32.352493 24.617802 -22.762135 61.153889 -13.237326 -21.259586 -8.335196 -41.421940 11.892763 8.927240 83.104546 3.048201 -17.882647 -13.175468 -0.732786 5.049366 -32.105396 6.561327 -6.717312 68.191063 -10.124197 -14.062445 -33.435905 4.298642 -12.543493 
-59.138771 41.111950 58.445858 -2.344515 1.463618 -54.161465 0.000000 0.000000 0.000000 -1.095014 2.753404 -2.220516 -9.853312 -0.944335 1.263804 10.872064 2.907880 0.603772 -3.519355 9.157742 6.311733 -37.108894 13.090178 -39.464333 -22.909725 15.148299 34.046673 18.130863 14.863580 -8.272655 3.090466 -14.082293 8.028685 40.417850 -3.694366 -30.351496 24.562958 -22.771502 59.586029 -14.803339 -22.102753 -8.146796 -44.868774 11.336192 7.073163 75.882965 2.090536 -18.767048 -11.127341 -0.388562 3.332290 -30.062555 6.502352 -6.627768 68.146339 -10.261568 -14.725830 -34.011818 4.439752 -12.673062 
-59.594177 41.166832 58.786053 -2.998325 0.780181 -54.454922 0.000000 0.000000 0.000000 -0.977478 2.480108 -1.761012 -9.043198 -1.097448 1.232691 10.921608 3.210268 0.472025 -3.519355 9.157742 6.311733 -37.278023 13.288427 -39.324497 -22.846952 14.870956 33.672100 16.608183 13.855347 -8.395314 3.090466 -14.082293 8.028685 40.904541 -3.997917 -29.203604 24.514042 -22.717739 58.907402 -14.887231 -21.334723 -8.183271 -46.877071 11.052058 5.646657 66.817360 0.870020 -20.158281 -6.511247 0.302381 -1.509156 -28.162853 6.395550 -6.600073 67.933426 -10.319881 -14.748993 -34.487122 4.592689 -12.946009 
-60.041069 41.213013 59.144699 -3.593765 0.165689 -55.000641 0.000000 0.000000 0.000000 -0.899221 2.392284 -1.131255 -8.252354 -1.214597 1.241836 10.922352 3.522512 0.396785 -3.519355 9.157742 6.311733 -37.782764 13.328764 -39.866901 -22.803104 14.720892 33.429691 15.262139 13.851802 -8.409513 3.090466 -14.082293 8.028685 41.355209 -4.189020 -29.081324 24.503569 -22.720177 58.884201 -14.650840 -20.821335 -8.244276 -47.503189 11.120874 4.690958 56.973568 -0.632538 -22.617651 -0.831575 0.548931 -7.819586 -26.326664 6.082996 -6.668199 67.716637 -10.310193 -14.288294 -35.206985 4.837884 -13.323831 
-60.499874 41.278114 59.475899 -3.945428 -0.438412 -55.448280 0.000000 0.000000 0.000000 -1.182828 2.567813 -0.902556 -7.304125 -1.054878 1.316190 10.833732 3.278771 0.606485 -3.519355 9.157742 6.311733 -38.560791 13.653526 -40.382256 -22.792622 14.717871 33.925667 14.858238 13.888782 -8.413956 3.090466 -14.082293 8.028685 41.811104 -4.061056 -29.856878 24.621410 -22.851675 60.800068 -13.009477 -20.697475 -8.382001 -47.484539 11.267749 3.908962 48.075180 -1.790289 -24.381899 3.494861 0.399547 -12.991610 -24.637714 5.839560 -6.969494 67.474045 -10.172514 -13.615217 -35.681820 5.049643 -13.702573 
-60.920074 41.352448 59.802845 -4.512308 -0.924859 -55.893822 0.000000 0.000000 0.000000 -1.554331 2.596702 -0.714896 -5.928037 -2.056690 1.861136 10.414510 3.972631 0.516507 -3.519355 9.157742 6.311733 -39.460323 13.902147 -40.433586 -22.775658 14.691829 34.249847 14.765347 13.985229 -8.413161 3.090466 -14.082293 8.028685 42.205284 -4.207676 -29.681789 24.629869 -22.845539 60.674053 -13.000043 -20.558207 -8.386458 -46.560974 11.249915 3.314281 39.308407 -2.696727 -26.759428 8.945785 -0.426707 -20.603745 -22.913275 5.291623 -7.197121 67.125862 -10.104598 -12.718080 -36.111481 5.271647 -14.132431 
-61.347755 41.394794 60.098564 -4.503037 -1.255878 -56.649174 0.000000 0.000000 0.000000 -2.376666 3.161346 -0.365319 -4.804168 -2.550406 2.228230 10.003810 4.227258 0.591960 -3.519355 9.157742 6.311733 -40.500317 14.354290 -40.416840 -22.775173 14.692695 34.220566 14.090982 14.322144 -8.402061 3.090466 -14.082293 8.028685 42.345863 -4.484383 -29.789610 24.651485 -22.889013 60.962246 -12.799973 -20.551815 -8.409968 -45.514435 11.737381 2.754346 31.385714 -3.292490 -29.844378 11.541481 -1.112586 -24.581182 -21.699205 5.341076 -7.148140 66.825989 -10.084843 -11.905120 -36.331047 5.433762 -14.501448 
-61.667130 41.451481 60.342705 -4.630353 -1.430864 -57.442757 0.000000 0.000000 0.000000 -3.522610 3.606473 -0.055407 -3.229374 -2.886529 2.499617 9.700061 4.091051 0.762330 -3.519355 9.157742 6.311733 -41.623253 14.798442 -39.768440 -22.751667 14.666864 34.214939 14.113299 13.940818 -8.418708 3.090466 -14.082293 8.028685 42.467518 -4.565255 -29.688797 24.688923 -22.960503 61.208057 -12.706029 -19.898649 -8.444622 -44.844097 12.012121 2.337049 25.950596 -3.628546 -30.623646 10.804047 -0.880166 -23.399506 -20.800123 5.008941 -7.372089 66.560143 -10.016509 -11.073894 -36.382618 5.534804 -14.778238 
